<?xml version="1.0" encoding="UTF-8"?>
<svg id="Capa_1" xmlns="http://www.w3.org/2000/svg" version="1.1" viewBox="0 0 48 48">
  <!-- Generator: Adobe Illustrator 30.3.0, SVG Export Plug-In . SVG Version: 2.1.3 Build 182)  -->
  <defs>
    <style>
      .st0 {
        fill: #c8ff01;
      }

      .st1 {
        fill: #999;
      }
    </style>
  </defs>
  <circle class="st1" cx="24" cy="24" r="22.8"/>
  <path class="st0" d="M46.8,22.6v2.8s0,.4,0,.4c-.9,11.1-9.8,20-20.9,20.9h-.4c0,0-2.8,0-2.8,0-5.7-.4-11.2-2.9-15.1-7.1C-.8,30.9-.9,17.3,7.3,8.5s23.4-9.8,32.6-.9c4.1,4,6.5,9.3,6.9,14.9ZM27.1,17.8v1.6c0,.7.4,1.2,1,1.4s1.2.1,1.7-.3l3.2-3.2c.5-.5.5-1.5,0-2-1.1-1.1-2.1-2.2-3.3-3.3s-1.2-.4-1.8-.1-.8.8-.8,1.5v1.4s-8.1,0-8.1,0c-4.2.1-7.5,3.6-7.5,7.8s.8,1.5,1.6,1.5,1.4-.7,1.5-1.6c0-2.5,2-4.6,4.6-4.6h7.9ZM15,32.8c1.1,1.2,2.2,2.3,3.4,3.4s1.1.3,1.6,0,.8-.7.8-1.2v-1.7s7.9,0,7.9,0c4.4,0,7.9-3.6,7.7-8s-.9-1.4-1.7-1.3-1.4.8-1.4,1.7c0,2.5-2,4.5-4.6,4.5h-7.9s0-1.5,0-1.5c0-.6-.3-1.1-.8-1.4s-1.2-.3-1.7,0c-1.2,1.1-2.3,2.2-3.4,3.4s-.5,1.4,0,2Z"/>
</svg>